HIERARCHY
ROOT hip
{
  OFFSET 0 0 0
  CHANNELS 6 Xposition Yposition Zposition Zrotation Yrotation Xrotation
  JOINT abdomen
  {
    OFFSET 0 20.6881 -0.73152
    CHANNELS 3 Zrotation Xrotation Yrotation
    JOINT chest
    {
      OFFSET 0 11.7043 -0.48768
      CHANNELS 3 Zrotation Xrotation Yrotation
      JOINT neck
      {
        OFFSET 0 22.1894 -2.19456
        CHANNELS 3 Zrotation Xrotation Yrotation
        JOINT head
        {
          OFFSET -0.24384 7.07133 1.2192
          CHANNELS 3 Zrotation Xrotation Yrotation
          JOINT leftEye
          {
            OFFSET 4.14528 8.04674 8.04672
            CHANNELS 3 Zrotation Xrotation Yrotation
            End Site
            {
              OFFSET 1 0 0
            }
          }
          JOINT rightEye
          {
            OFFSET -3.6576 8.04674 8.04672
            CHANNELS 3 Zrotation Xrotation Yrotation
            End Site
            {
              OFFSET 1 0 0
            }
          }
        }
      }
      JOINT rCollar
      {
        OFFSET -2.68224 19.2634 -4.8768
        CHANNELS 3 Zrotation Xrotation Yrotation
        JOINT rShldr
        {
          OFFSET -8.77824 -1.95073 1.46304
          CHANNELS 3 Zrotation Xrotation Yrotation
          JOINT rForeArm
          {
            OFFSET -28.1742 -1.7115 0.48768
            CHANNELS 3 Zrotation Xrotation Yrotation
            JOINT rHand
            {
              OFFSET -22.5879 0.773209 7.07136
              CHANNELS 3 Zrotation Xrotation Yrotation
              JOINT rThumb1
              {
                OFFSET -1.2192 -0.487915 3.41376
                CHANNELS 3 Zrotation Xrotation Yrotation
                JOINT rThumb2
                {
                  OFFSET -3.37035 -0.52449 3.41376
                  CHANNELS 3 Zrotation Xrotation Yrotation
                  End Site
                  {
                    OFFSET -1.78271 -1.18214 1.43049
                  }
                }
              }
              JOINT rIndex1
              {
                OFFSET -7.75947 0.938293 5.60832
                CHANNELS 3 Zrotation Xrotation Yrotation
                JOINT rIndex2
                {
                  OFFSET -2.54057 -0.884171 1.56538
                  CHANNELS 3 Zrotation Xrotation Yrotation
                  End Site
                  {
                    OFFSET -1.62519 -0.234802 1.16502
                  }
                }
              }
              JOINT rMid1
              {
                OFFSET -8.24714 1.18213 3.41376
                CHANNELS 3 Zrotation Xrotation Yrotation
                JOINT rMid2
                {
                  OFFSET -3.10165 -0.590103 1.0647
                  CHANNELS 3 Zrotation Xrotation Yrotation
                  End Site
                  {
                    OFFSET -2.48547 -0.328903 0.83742
                  }
                }
              }
              JOINT rRing1
              {
                OFFSET -8.82822 0.546677 1.51678
                CHANNELS 3 Zrotation Xrotation Yrotation
                JOINT rRing2
                {
                  OFFSET -2.60934 -0.819778 -0.0198488
                  CHANNELS 3 Zrotation Xrotation Yrotation
                  End Site
                  {
                    OFFSET -2.33842 -0.294052 0.168128
                  }
                }
              }
              JOINT rPinky1
              {
                OFFSET -8.27202 -0.0477905 -0.4584
                CHANNELS 3 Zrotation Xrotation Yrotation
                JOINT rPinky2
                {
                  OFFSET -1.82734 -0.647385 -0.700984
                  CHANNELS 3 Zrotation Xrotation Yrotation
                  End Site
                  {
                    OFFSET -1.69225 -0.51767 -0.607171
                  }
                }
              }
            }
          }
        }
      }
      JOINT lCollar
      {
        OFFSET 2.68224 19.2634 -4.8768
        CHANNELS 3 Zrotation Xrotation Yrotation
        JOINT lShldr
        {
          OFFSET 8.77824 -1.95073 1.46304
          CHANNELS 3 Zrotation Xrotation Yrotation
          JOINT lForeArm
          {
            OFFSET 28.1742 -1.7115 0.48768
            CHANNELS 3 Zrotation Xrotation Yrotation
            JOINT lHand
            {
              OFFSET 22.5879 0.773209 7.07136
              CHANNELS 3 Zrotation Xrotation Yrotation
              JOINT lThumb1
              {
                OFFSET 1.2192 -0.487915 3.41376
                CHANNELS 3 Zrotation Xrotation Yrotation
                JOINT lThumb2
                {
                  OFFSET 3.37035 -0.52449 3.41376
                  CHANNELS 3 Zrotation Xrotation Yrotation
                  End Site
                  {
                    OFFSET 1.78271 -1.18214 1.43049
                  }
                }
              }
              JOINT lIndex1
              {
                OFFSET 7.75947 0.938293 5.60832
                CHANNELS 3 Zrotation Xrotation Yrotation
                JOINT lIndex2
                {
                  OFFSET 2.54057 -0.884171 1.56538
                  CHANNELS 3 Zrotation Xrotation Yrotation
                  End Site
                  {
                    OFFSET 1.62519 -0.234802 1.16502
                  }
                }
              }
              JOINT lMid1
              {
                OFFSET 8.24714 1.18213 3.41376
                CHANNELS 3 Zrotation Xrotation Yrotation
                JOINT lMid2
                {
                  OFFSET 3.10165 -0.590103 1.0647
                  CHANNELS 3 Zrotation Xrotation Yrotation
                  End Site
                  {
                    OFFSET 2.48547 -0.328903 0.83742
                  }
                }
              }
              JOINT lRing1
              {
                OFFSET 8.82822 0.546677 1.51678
                CHANNELS 3 Zrotation Xrotation Yrotation
                JOINT lRing2
                {
                  OFFSET 2.60934 -0.819778 -0.0198488
                  CHANNELS 3 Zrotation Xrotation Yrotation
                  End Site
                  {
                    OFFSET 2.33842 -0.294052 0.168128
                  }
                }
              }
              JOINT lPinky1
              {
                OFFSET 8.27202 -0.0477905 -0.4584
                CHANNELS 3 Zrotation Xrotation Yrotation
                JOINT lPinky2
                {
                  OFFSET 1.82734 -0.647385 -0.700984
                  CHANNELS 3 Zrotation Xrotation Yrotation
                  End Site
                  {
                    OFFSET 1.69225 -0.51767 -0.607171
                  }
                }
              }
            }
          }
        }
      }
    }
  }
  JOINT rButtock
  {
    OFFSET -8.77824 4.35084 1.2192
    CHANNELS 3 Zrotation Xrotation Yrotation
    JOINT rThigh
    {
      OFFSET 0 -1.70687 -2.19456
      CHANNELS 3 Zrotation Xrotation Yrotation
      JOINT rShin
      {
        OFFSET 0 -36.8199 0.73152
        CHANNELS 3 Zrotation Xrotation Yrotation
        JOINT rFoot
        {
          OFFSET 0.73152 -45.1104 -5.12064
          CHANNELS 3 Zrotation Xrotation Yrotation
          End Site
          {
            OFFSET -1.1221 -3.69964 12.103
          }
        }
      }
    }
  }
  JOINT lButtock
  {
    OFFSET 8.77824 4.35084 1.2192
    CHANNELS 3 Zrotation Xrotation Yrotation
    JOINT lThigh
    {
      OFFSET 0 -1.70687 -2.19456
      CHANNELS 3 Zrotation Xrotation Yrotation
      JOINT lShin
      {
        OFFSET 0 -36.8199 0.73152
        CHANNELS 3 Zrotation Xrotation Yrotation
        JOINT lFoot
        {
          OFFSET -0.73152 -45.1104 -5.12064
          CHANNELS 3 Zrotation Xrotation Yrotation
          End Site
          {
            OFFSET 1.1221 -3.69964 12.103
          }
        }
      }
    }
  }
}
MOTION
Frames:	7
Frame Time:	0.00833333
-215.829 83.185 -78.8211 0.0 0.0 0.0 -3.13119 0.00208552 -0.0845028 -0.863227 0.0181966 -0.149331 -7.3247e-14 -1.59028e-15 3.97569e-16 -2.1934e-13 3.18055e-15 1.04051e-15 -0.0 0.0 0.0 -0.0 0.0 0.0 -3.64313e-14 -2.55858e-16 3.97569e-16 -7.68258e-13 -6.02566e-15 1.98785e-15 -1.32608e-11 3.7944e-12 2.06736e-13 -1.51919e-10 -4.93426e-12 5.1843e-13 -3.5833e-10 -2.46642e-12 1.61254e-12 -6.1883e-10 -4.25558e-12 2.78776e-12 -3.58324e-10 -2.46493e-12 1.59982e-12 7.73091 5.47488 0.417314 -3.58329e-10 -2.46612e-12 1.6189e-12 2.90554 0.965183 0.102902 -3.58319e-10 -2.46592e-12 1.61016e-12 10.2786 0.731801 0.0259123 -3.58329e-10 -2.46692e-12 1.61254e-12 2.22167 -0.733487 -0.20892 -3.65251e-14 -2.53528e-16 9.93923e-17 -7.71978e-13 -5.45415e-15 3.97569e-16 -1.3287e-11 -4.14068e-12 1.78111e-13 -1.51897e-10 3.02595e-12 5.53417e-13 -3.58339e-10 -2.41694e-12 1.59664e-12 -6.18827e-10 -4.17289e-12 2.77503e-12 -3.58345e-10 -2.41643e-12 1.59346e-12 -7.73091 5.47488 -0.417314 -3.5834e-10 -2.41672e-12 1.59346e-12 -2.90554 0.965183 -0.102902 -3.58353e-10 -2.41623e-12 1.59823e-12 -10.2786 0.731801 -0.0259123 -3.58344e-10 -2.41762e-12 1.59982e-12 -2.22167 -0.733487 0.20892 -2.03217e-16 0.0 -3.88251e-19 -1.91887 -1.93503 0.0146259 -0.00850007 -2.07867 -0.0697562 -0.458577 4.00011 0.132446 2.03217e-16 0.0 3.88251e-19 -2.8383 -9.32625 0.322362 -0.00902442 11.3079 -0.235075 0.527433 -1.99509 -0.018369
-211.238 81.3971 -82.9562 -4.4759 70.9147 1.25 -3.2967 -0.612536 0.912785 -0.456926 1.99206 0.111803 -3.14131 0.4034 -1.45034 5.83271 0.720608 -2.04158 -0.0 0.0 0.0 -0.0 0.0 0.0 2.98086e-14 -2.68322e-13 -2.08373e-13 22.8994 14.9305 -0.339362 -22.5911 -20.4608 14.9522 0.219149 -10.4168 -1.37813 6.24133e-10 1.82315e-10 9.96557e-10 1.04933e-09 3.16881e-10 1.74314e-09 6.24138e-10 1.82317e-10 9.96545e-10 7.73091 5.47488 0.417314 6.24133e-10 1.82316e-10 9.9656e-10 2.90554 0.965183 0.102902 6.24143e-10 1.82316e-10 9.96554e-10 10.2786 0.731801 0.0259123 6.24132e-10 1.82315e-10 9.96559e-10 2.22167 -0.733487 -0.20892 2.96936e-14 -2.68324e-13 -2.08656e-13 -24.7079 12.2161 -1.23787 8.04548 -4.96806 -10.8185 -0.00779439 -1.95858 0.274679 -3.59101e-10 -1.41457e-10 -2.85699e-10 -6.15668e-10 -2.42622e-10 -4.9406e-10 -3.59105e-10 -1.41457e-10 -2.85699e-10 -7.73091 5.47488 -0.417314 -3.59101e-10 -1.41455e-10 -2.85701e-10 -2.90554 0.965183 -0.102902 -3.59113e-10 -1.41454e-10 -2.85699e-10 -10.2786 0.731801 -0.0259123 -3.59105e-10 -1.41456e-10 -2.85699e-10 -2.22167 -0.733487 0.20892 -2.03217e-16 0.0 -3.88251e-19 -0.855791 -5.91092 1.28467 0.0445566 7.99328 0.143778 -1.24951 -2.5512 -5.07234 2.03217e-16 0.0 3.88251e-19 -0.899108 -11.5932 1.15557 0.00391299 18.1053 -0.318422 0.375824 -5.57337 -1.08755
-211.246 81.399 -82.9416 -4.5863 70.8452 1.1679 -3.4462 -1.26346 1.96963 -0.0540547 4.07551 0.389791 -6.43503 0.832917 -2.97881 12.0586 1.48443 -4.19342 -0.0 0.0 0.0 -0.0 0.0 0.0 1.00664e-13 -5.62352e-13 -4.24803e-13 47.3404 30.7077 -0.790204 -32.9373 -37.0575 37.1033 -0.130606 -21.4088 -2.99517 1.6944e-09 3.83374e-10 2.08775e-09 2.86625e-09 6.66111e-10 3.65185e-09 1.69441e-09 3.83377e-10 2.08774e-09 7.73091 5.47488 0.417314 1.6944e-09 3.83376e-10 2.08775e-09 2.90554 0.965183 0.102902 1.69441e-09 3.83377e-10 2.08775e-09 10.2786 0.731801 0.0259123 1.6944e-09 3.83375e-10 2.08776e-09 2.22167 -0.733487 -0.20892 1.00526e-13 -5.62359e-13 -4.2507e-13 -50.1926 25.1381 -2.74293 14.534 -9.62317 -22.5 0.00443388 -4.03017 0.566298 -3.85037e-10 -2.97367e-10 -6.0318e-10 -6.55619e-10 -5.0999e-10 -1.04322e-09 -3.85038e-10 -2.97367e-10 -6.03174e-10 -7.73091 5.47488 -0.417314 -3.85035e-10 -2.97363e-10 -6.0318e-10 -2.90554 0.965183 -0.102902 -3.85045e-10 -2.97363e-10 -6.0318e-10 -10.2786 0.731801 -0.0259123 -3.85039e-10 -2.97364e-10 -6.03183e-10 -2.22167 -0.733487 0.20892 -2.03217e-16 0.0 -3.88251e-19 0.467947 -10.1046 2.66284 0.0155752 18.6362 0.387116 -3.39026 -9.34895 -10.712 2.03217e-16 0.0 3.88251e-19 1.22758 -13.9851 2.05072 0.0417908 25.2889 -0.418995 0.0672749 -9.34031 -2.24543
-211.234 81.4009 -82.9665 -4.166 70.8302 1.554 -3.56352 -1.83964 2.90871 0.301483 5.93943 0.637288 -9.36273 1.2071 -4.35187 17.652 2.15085 -6.12858 -0.0 0.0 0.0 -0.0 0.0 0.0 1.62288e-13 -8.04455e-13 -6.25914e-13 69.4122 44.7837 -1.38603 -30.665 -41.6458 63.4905 -1.05963 -31.1717 -4.75384 2.58906e-09 5.51878e-10 2.98645e-09 4.38564e-09 9.59155e-10 5.22383e-09 2.58906e-09 5.51882e-10 2.98643e-09 7.73091 5.47488 0.417314 2.58906e-09 5.51881e-10 2.98644e-09 2.90554 0.965183 0.102902 2.58907e-09 5.51881e-10 2.98644e-09 10.2786 0.731801 0.0259123 2.58905e-09 5.5188e-10 2.98645e-09 2.22167 -0.733487 -0.20892 1.62131e-13 -8.04465e-13 -6.26168e-13 -72.2122 36.5712 -4.52094 18.7285 -12.7765 -33.2576 0.0332053 -5.87519 0.827906 -3.60626e-10 -4.19537e-10 -8.60291e-10 -6.09348e-10 -7.19522e-10 -1.48773e-09 -3.60625e-10 -4.19537e-10 -8.60283e-10 -7.73091 5.47488 -0.417314 -3.60622e-10 -4.19531e-10 -8.60291e-10 -2.90554 0.965183 -0.102902 -3.60631e-10 -4.19531e-10 -8.60292e-10 -10.2786 0.731801 -0.0259123 -3.60626e-10 -4.19532e-10 -8.60297e-10 -2.22167 -0.733487 0.20892 -2.03217e-16 0.0 -3.88251e-19 1.81276 -13.836 3.91814 -0.0973929 28.1357 0.642487 -6.45284 -15.1021 -16.034 2.03217e-16 0.0 3.88251e-19 3.18497 -16.1145 2.87275 0.101151 31.6997 -0.525313 -0.336804 -12.7126 -3.29127
-211.223 81.3989 -82.9706 -4.1109 70.8222 1.613 -3.64621 -2.23106 3.55202 0.577234 7.25491 0.805356 -11.4192 1.44591 -5.3355 21.5548 2.58421 -7.51827 -0.0 0.0 0.0 -0.0 0.0 0.0 2.00838e-13 -9.1674e-13 -7.88728e-13 85.0174 54.614 -2.02086 -28.3561 -37.7137 79.9144 -2.1635 -37.9354 -6.28923 3.04467e-09 6.38994e-10 3.40387e-09 5.16118e-09 1.11173e-09 5.95398e-09 3.04468e-09 6.38998e-10 3.40386e-09 7.73091 5.47488 0.417314 3.04467e-09 6.38998e-10 3.40386e-09 2.90554 0.965183 0.102902 3.04468e-09 6.38998e-10 3.40387e-09 10.2786 0.731801 0.0259123 3.04467e-09 6.38996e-10 3.40388e-09 2.22167 -0.733487 -0.20892 2.00671e-13 -9.16751e-13 -7.88976e-13 -86.9933 44.3516 -6.24263 20.9114 -14.203 -40.9411 0.0631903 -7.15432 1.01078 -2.10346e-10 -4.57354e-10 -9.66482e-10 -3.4752e-10 -7.84465e-10 -1.67065e-09 -2.10344e-10 -4.57355e-10 -9.66472e-10 -7.73091 5.47488 -0.417314 -2.10342e-10 -4.57347e-10 -9.66482e-10 -2.90554 0.965183 -0.102902 -2.10349e-10 -4.57348e-10 -9.66484e-10 -10.2786 0.731801 -0.0259123 -2.10344e-10 -4.57349e-10 -9.66491e-10 -2.22167 -0.733487 0.20892 -2.03217e-16 0.0 -3.88251e-19 2.81746 -16.4368 4.78065 -0.238498 34.778 0.857826 -9.22233 -18.7999 -19.9637 2.03217e-16 0.0 3.88251e-19 4.57332 -17.598 3.47222 0.160488 36.1792 -0.613051 -0.684657 -15.1147 -3.9979
-211.208 81.38 -82.9744 -3.9664 70.8065 1.7532 -3.69779 -2.36593 3.77202 0.769081 7.80699 0.856791 -12.2744 1.46616 -5.78879 23.0249 2.74609 -8.17506 -0.0 0.0 0.0 -0.0 0.0 0.0 2.0638e-13 -8.25346e-13 -9.17305e-13 91.0345 58.5147 -2.27257 -28.2748 -34.9291 84.8728 -2.72701 -40.5702 -6.9912 2.87904e-09 6.11142e-10 3.14419e-09 4.88423e-09 1.06639e-09 5.49955e-09 2.87905e-09 6.11144e-10 3.14418e-09 7.73091 5.47488 0.417314 2.87904e-09 6.11145e-10 3.14418e-09 2.90554 0.965183 0.102902 2.87905e-09 6.11145e-10 3.14418e-09 10.2786 0.731801 0.0259123 2.87903e-09 6.11144e-10 3.1442e-09 2.22167 -0.733487 -0.20892 2.0622e-13 -8.25356e-13 -9.17561e-13 -92.6734 47.0463 -7.13234 21.65 -14.5826 -44.0279 0.0768043 -7.63693 1.08019 1.92832e-10 -3.57139e-10 -8.62807e-10 3.48758e-10 -6.12715e-10 -1.48946e-09 1.92834e-10 -3.57139e-10 -8.62802e-10 -7.73091 5.47488 -0.417314 1.92836e-10 -3.57131e-10 -8.62811e-10 -2.90554 0.965183 -0.102902 1.9283e-10 -3.57133e-10 -8.62812e-10 -10.2786 0.731801 -0.0259123 1.92835e-10 -3.57134e-10 -8.62822e-10 -2.22167 -0.733487 0.20892 -2.03217e-16 0.0 -3.88251e-19 3.16242 -17.4712 5.03265 -0.312052 37.4198 0.951873 -10.3705 -20.0329 -21.4946 2.03217e-16 0.0 3.88251e-19 5.09176 -18.1813 3.72491 0.188934 37.953 -0.652466 -0.815603 -16.1804 -4.18176
-211.192 81.3598 -82.9741 -3.8097 70.7942 1.9039 -3.73163 -2.31792 3.68981 0.904443 7.81367 0.824377 -12.2761 1.33239 -5.86238 22.7474 2.7139 -8.30609 -0.0 0.0 0.0 -0.0 0.0 0.0 1.8838e-13 -5.89511e-13 -1.0205e-12 89.9919 58.1827 -2.05311 -28.255 -35.2845 84.407 -2.66023 -40.278 -6.90987 2.26998e-09 5.01219e-10 2.40101e-09 3.85603e-09 8.79749e-10 4.19929e-09 2.26998e-09 5.01219e-10 2.40101e-09 7.73091 5.47488 0.417314 2.26997e-09 5.01221e-10 2.40101e-09 2.90554 0.965183 0.102902 2.26999e-09 5.0122e-10 2.40101e-09 10.2786 0.731801 0.0259123 2.26997e-09 5.0122e-10 2.40102e-09 2.22167 -0.733487 -0.20892 1.88236e-13 -5.89518e-13 -1.02078e-12 -92.2074 46.1377 -7.13161 21.6103 -14.6 -43.7945 0.0745868 -7.55094 1.06783 7.73001e-10 -1.59278e-10 -6.09162e-10 1.34904e-09 -2.73532e-10 -1.0481e-09 7.73002e-10 -1.59278e-10 -6.09164e-10 -7.73091 5.47488 -0.417314 7.73003e-10 -1.59271e-10 -6.09171e-10 -2.90554 0.965183 -0.102902 7.72999e-10 -1.59275e-10 -6.0917e-10 -10.2786 0.731801 -0.0259123 7.73004e-10 -1.59273e-10 -6.09182e-10 -2.22167 -0.733487 0.20892 -2.03217e-16 0.0 -3.88251e-19 2.99495 -17.3912 4.8326 -0.305237 37.2048 0.93599 -10.0842 -19.6298 -21.1908 2.03217e-16 0.0 3.88251e-19 4.97253 -18.1232 3.72445 0.186419 37.7944 -0.650374 -0.759739 -16.2937 -3.98109
